<svg width="12" height="13" viewBox="0 0 12 13" fill="none" xmlns="http://www.w3.org/2000/svg">
<path fill-rule="evenodd" clip-rule="evenodd" d="M6 0.359192C2.68636 0.359192 0 3.04711 0 6.36267C0 9.67823 2.68636 12.3661 6 12.3661C9.31364 12.3661 12 9.67823 12 6.36267C12 3.04711 9.31364 0.359192 6 0.359192ZM4.12137 10.9007C4.71697 11.1476 5.35533 11.2746 6 11.2746C7.30197 11.2746 8.55062 10.7571 9.47125 9.83593C10.3919 8.91477 10.9091 7.6654 10.9091 6.36267C10.9091 5.05994 10.3919 3.81057 9.47125 2.88941C8.55062 1.96824 7.30197 1.45073 6 1.45073C5.35533 1.45073 4.71697 1.57778 4.12137 1.82463C3.52577 2.07148 2.9846 2.43329 2.52875 2.88941C2.0729 3.34552 1.7113 3.88701 1.46459 4.48295C1.21789 5.0789 1.09091 5.71763 1.09091 6.36267C1.09091 7.00772 1.21789 7.64644 1.46459 8.24239C1.7113 8.83833 2.0729 9.37982 2.52875 9.83593C2.9846 10.2921 3.52577 10.6539 4.12137 10.9007ZM8.49166 4.72822C8.46195 4.79344 8.41969 4.85217 8.36729 4.90105L6.77129 6.38992L8.25874 7.98686C8.31049 8.03869 8.35129 8.10041 8.37869 8.16835C8.4061 8.23628 8.41955 8.30905 8.41825 8.3823C8.41695 8.45555 8.40093 8.52778 8.37114 8.59471C8.34134 8.66163 8.29839 8.72186 8.24483 8.77182C8.19128 8.82178 8.12822 8.86044 8.05941 8.88549C7.99061 8.91054 7.91747 8.92148 7.84435 8.91765C7.77123 8.91382 7.69963 8.89529 7.63382 8.86319C7.56801 8.83108 7.50933 8.78604 7.46129 8.73076L5.97328 7.13382L4.37728 8.62215C4.32528 8.67295 4.26367 8.71283 4.19604 8.73947C4.12842 8.76611 4.05617 8.77896 3.98351 8.77726C3.91086 8.77557 3.83928 8.75936 3.77297 8.7296C3.70667 8.69984 3.64698 8.65712 3.5974 8.60395C3.54782 8.55078 3.50937 8.48824 3.48429 8.41999C3.45921 8.35174 3.44801 8.27917 3.45135 8.20653C3.45469 8.13389 3.47251 8.06266 3.50375 7.997C3.53499 7.93135 3.57903 7.87261 3.63328 7.82422L5.22983 6.33535L3.74183 4.73841C3.64699 4.63196 3.59757 4.49259 3.60412 4.35014C3.61068 4.20769 3.67269 4.07346 3.7769 3.97618C3.88111 3.8789 4.01923 3.82629 4.16172 3.82962C4.3042 3.83294 4.43972 3.89193 4.53928 3.99397L6.02728 5.59145L7.62329 4.10258C7.67568 4.0537 7.73719 4.01562 7.8043 3.99053C7.8714 3.96543 7.94279 3.9538 8.01438 3.95631C8.08597 3.95882 8.15637 3.97541 8.22156 4.00515C8.28674 4.03488 8.34544 4.07717 8.39429 4.12959C8.44314 4.18202 8.48119 4.24356 8.50628 4.31071C8.53136 4.37785 8.54298 4.44928 8.54047 4.52092C8.53796 4.59255 8.52138 4.66299 8.49166 4.72822Z" fill="#666666"/>
</svg>
