<svg width="17" height="16" viewBox="0 0 17 16" fill="none" xmlns="http://www.w3.org/2000/svg">
<path fill-rule="evenodd" clip-rule="evenodd" d="M0 0.960938C0 0.684795 0.223858 0.460938 0.5 0.460938H2.5H4.5C4.77614 0.460938 5 0.684795 5 0.960938C5 1.23708 4.77614 1.46094 4.5 1.46094H3V4.46326H8V3.96271C8 3.13424 8.67131 2.46216 9.5 2.46216H15.5C16.3287 2.46216 17 3.13424 17 3.96271V5.96381C17 6.79228 16.3287 7.46436 15.5 7.46436H9.5C8.67131 7.46436 8 6.79228 8 5.96381V5.46326H3V11.9674C3 12.1002 3.05275 12.2276 3.14655 12.3214C3.24034 12.4153 3.36749 12.468 3.5 12.468H8V11.9673C8 11.1389 8.67129 10.4667 9.5 10.4667H15.5C16.3287 10.4667 17 11.1389 17 11.9673V13.9685C17 14.797 16.3287 15.4691 15.5 15.4691H9.5C8.67129 15.4691 8 14.797 8 13.9685V13.468H3.5C3.10208 13.468 2.72052 13.3098 2.43924 13.0283C2.15796 12.7469 2 12.3653 2 11.9674V4.96326V1.46094H0.5C0.223858 1.46094 0 1.23708 0 0.960938ZM9 12.968V13.9685C9 14.2453 9.22414 14.4691 9.5 14.4691H15.5C15.7759 14.4691 16 14.2453 16 13.9685V11.9673C16 11.6906 15.7759 11.4667 15.5 11.4667H9.5C9.22414 11.4667 9 11.6906 9 11.9673V12.968ZM9 5.96381V4.96326V3.96271C9 3.686 9.22412 3.46216 9.5 3.46216H15.5C15.7759 3.46216 16 3.686 16 3.96271V5.96381C16 6.24051 15.7759 6.46436 15.5 6.46436H9.5C9.22412 6.46436 9 6.24051 9 5.96381Z" fill="#999999"/>
</svg>
